<svg xmlns="http://www.w3.org/2000/svg" xmlns:xlink="http://www.w3.org/1999/xlink" width="40" height="40" viewBox="0 0 40 40">
  <defs>
    <clipPath id="clip-path">
      <circle id="Ellipse_1" data-name="Ellipse 1" cx="20" cy="20" r="20" transform="translate(1220 10)" fill="#e5e5e5"/>
    </clipPath>
  </defs>
  <g id="Mask_Group_4" data-name="Mask Group 4" transform="translate(-1220 -10)" clip-path="url(#clip-path)">
    <path id="Path_109" data-name="Path 109" d="M20,0A20,20,0,1,1,0,20,20,20,0,0,1,20,0Z" transform="translate(1220 10)" fill="#f0f0f7"/>
    <path id="person_ico" d="M18.726,18.726a7.363,7.363,0,1,0-7.363-7.363A7.361,7.361,0,0,0,18.726,18.726Zm0,3.681C13.811,22.407,4,24.874,4,29.77v4.136H33.452V29.77C33.452,24.874,23.641,22.407,18.726,22.407Z" transform="translate(1221.274 16.274)" fill="#43425d"/>
  </g>
</svg>
